<svg version="1.2" xmlns="http://www.w3.org/2000/svg" viewBox="0 0 3020 1092" width="3020" height="1092">
	<style>
		.s0 { fill: #241f20 } 
		.s1 { fill: #ff8200 } 
		.s2 { fill: #ffd100 } 
	</style>
	<g id="main">
		<g id="&lt;Group&gt;">
			<g id="Fusion">
				<path id="&lt;Compound Path&gt;" class="s0" d="m1437.93 395.56v46.94h-207.4v162.12h-56.59v-222.28q0-39.65 5.2-59.89 11.93-45.85 47.89-65.95 35.95-20.1 106.29-20.1h104.61v46.94h-109.54q-40.24 0.27-57.37 8.63-27.25 12.95-35.82 42.35-4.67 15.38-4.67 40.2v21.04z"/>
				<path id="&lt;Compound Path&gt;" class="s0" d="m1548.76 236.4v218.78q0 27.24 3.12 45.86 10.64 62.31 90.32 62.31 59.96 0 83.33-35.34 8.82-13.48 10.9-41.54 0.78-12.14 0.78-35.88v-214.19h56.58v214.19q0 48.02-5.19 70.95-10.38 45.59-58.4 70.13-36.6 18.62-95 18.62-43.09 0-72.42-12.55-29.34-12.54-47.5-38.43-16.36-23.48-21.03-57.46-2.08-15.65-2.08-46.67v-218.78z"/>
				<path id="&lt;Compound Path&gt;" class="s0" d="m1859.73 604.62v-46.93h153.14q35.3 0 50.62-9.18 23.36-14.02 23.36-47.47 0-43.16-30.37-53.42-13.5-4.58-54.25-4.58h-29.59q-61.26 0-87.74-17.54-37.89-24.81-37.89-78.5 0-35.34 17.39-62.58 21.28-33.72 62.82-43.16 20.5-4.86 57.1-4.86h145.88v46.94h-145.88q-28.3 0-40.75 3.5-36.35 9.99-36.34 51.8 0 30.21 20.5 41.27 18.17 9.99 56.59 9.98h21.28q42.83 0.01 64.9 3.78 42.56 7.29 62.03 42.89 14.54 26.98 14.54 62.32 0 65.28-49.06 91.72-18.95 9.98-47.5 12.67-13.76 1.36-44.91 1.36z"/>
				<path id="&lt;Compound Path&gt;" class="s0" d="m2204.43 604.63l0.01-368.23h56.58v368.23z"/>
				<path id="&lt;Compound Path&gt;" fill-rule="evenodd" class="s0" d="m2494.89 231q165.61 0 165.61 188.57 0 101.97-48.54 147.29-46.47 43.16-125.9 43.16-90.85 0-132.37-53.68-20.25-25.9-30.11-72.3-6.5-31.02-6.49-62.85 0-46.67 13.75-87.4 34.79-102.79 164.05-102.79zm-5.45 46.94q-44.39 0-72.42 21.59-39.71 30.75-39.71 120.58 0 68.52 22.06 102.78 25.96 40.2 90.59 40.19 73.45 0 97.34-53.68 12.98-29.4 12.98-86.59 0-69.33-19.21-101.16-26.48-43.71-91.63-43.71z"/>
				<path id="&lt;Compound Path&gt;" class="s0" d="m2771.85 310.86v293.77h-55.03v-368.23h67.49l180.66 294.58v-294.58h55.03v368.23h-65.67z"/>
			</g>
			<g id="Solution">
				<path id="&lt;Compound Path&gt;" class="s1" d="m1174.01 860.77v-17.14h92.25q21.26 0 30.49-3.35 14.07-5.12 14.07-17.34 0-15.75-18.29-19.5-8.14-1.68-32.68-1.68h-17.82q-36.9 0.01-52.85-6.4-22.83-9.06-22.83-28.66 0-12.91 10.48-22.85 12.82-12.32 37.84-15.76 12.35-1.78 34.39-1.78h87.87v17.14h-87.87q-17.04 0-24.54 1.28-21.89 3.65-21.89 18.92-0.01 11.03 12.35 15.06 10.94 3.65 34.08 3.65h12.82q25.8 0 39.09 1.38 25.64 2.66 37.36 15.66 8.76 9.85 8.76 22.76 0 23.83-29.55 33.48-11.41 3.65-28.61 4.63-8.29 0.5-27.05 0.5z"/>
				<path id="&lt;Compound Path&gt;" fill-rule="evenodd" class="s1" d="m1527.78 724.34q99.75 0 99.75 68.86-0.01 37.23-29.24 53.78-27.99 15.76-75.83 15.76-54.72 0-79.73-19.6-12.2-9.46-18.14-26.4-3.91-11.33-3.91-22.95 0-17.04 8.29-31.92 20.95-37.53 98.81-37.53zm-3.29 17.14q-26.73 0-43.62 7.88-23.92 11.23-23.92 44.03 0 25.02 13.29 37.53 15.63 14.68 54.57 14.68 44.24 0 58.63-19.6 7.81-10.74 7.81-31.62 0-25.32-11.57-36.94-15.94-15.96-55.19-15.96z"/>
				<path id="&lt;Compound Path&gt;" class="s1" d="m1710.03 726.31h34.08v78.21q0.16 13.89 2.97 21.08 3.75 9.46 18.76 14.09 12.51 3.84 34.55 3.94h45.82v17.14h-52.54q-31.11-0.1-45.34-4.34-23.92-6.99-32.52-21.17-5.78-10.25-5.78-28.18z"/>
				<path id="&lt;Compound Path&gt;" class="s1" d="m1946.37 726.31v79.89q0 9.95 1.88 16.74 6.41 22.76 54.41 22.76 36.12 0 50.19-12.91 5.31-4.92 6.57-15.17 0.46-4.43 0.46-13.09v-78.22h34.09v78.22q0 17.53-3.13 25.9-6.25 16.65-35.18 25.61-22.04 6.8-57.22 6.8-25.96 0-43.62-4.58-17.67-4.58-28.61-14.04-9.85-8.57-12.67-20.98-1.25-5.71-1.25-17.04v-79.89z"/>
				<path id="&lt;Compound Path&gt;" class="s1" d="m2240.57 743.45h-73.79v-17.14h181.83v17.14h-73.96v117.32h-34.08z"/>
				<path id="&lt;Compound Path&gt;" class="s1" d="m2423.91 860.77v-134.46h34.09v134.46z"/>
				<path id="&lt;Compound Path&gt;" fill-rule="evenodd" class="s1" d="m2650.1 724.34q99.75 0 99.75 68.86 0 37.23-29.24 53.78-27.99 15.76-75.83 15.76-54.72 0-79.73-19.6-12.2-9.46-18.14-26.4-3.91-11.33-3.91-22.95 0-17.04 8.29-31.92 20.95-37.53 98.81-37.53zm-3.28 17.14q-26.74 0-43.63 7.88-23.92 11.23-23.92 44.03 0 25.03 13.29 37.53 15.64 14.68 54.57 14.68 44.24 0 58.63-19.6 7.81-10.74 7.82-31.62 0-25.31-11.57-36.94-15.95-15.96-55.19-15.96z"/>
				<path id="&lt;Compound Path&gt;" class="s1" d="m2868.15 753.5v107.27h-33.14v-134.46h40.65l108.82 107.57v-107.57h33.14v134.46h-39.56z"/>
			</g>
			<g id="Logo">
				<path id="&lt;Path&gt;" fill-rule="evenodd" class="s1" d="m536.51 777.8c-140.49 0-254.04-115-254.04-257.27 0-142.27 113.55-257.27 254.04-257.27 140.48 0 254.04 115 254.04 257.27 0 142.27-113.56 257.27-254.04 257.27z"/>
				<path id="&lt;Path&gt;" class="s2" d="m218.47 263.26l39.38 46.86c0 0 96.5-157.55 311.15-139.6 0 0 181.18 11.97 273.74 187.47l210.71-73.79c0 0-128-225.36-391.89-269.24 0 0-206.78-31.91-350.54 111.68 0 0-72.86 65.82-92.55 136.62z"/>
				<path id="&lt;Path&gt;" class="s2" d="m468.9 922.4l20.33-57.99c0 0-182.99-5.66-275.17-202.8 0 0-80.53-164.8 23.1-333.83l-168.61-147.74c0 0-128.49 225.09-33.8 478.36 0 0 76.3 197.23 271.03 251.31 0 0 92.75 30.9 163.12 12.69z"/>
				<path id="&lt;Path&gt;" class="s2" d="m915.68 363.7l-59.78 11.08c0 0 86.4 163.45-36.38 342.67 0 0-100.91 152.86-297.26 146.17l-42.38 221.68c0 0 256.72 0.56 426.3-208.85 0 0 130.77-165.32 79.96-363.23 0 0-19.79-96.82-70.46-149.52z"/>
			</g>
		</g>
	</g>
</svg>