<svg width="848" height="834" viewBox="0 0 848 834" fill="none" xmlns="http://www.w3.org/2000/svg">
<rect width="848" height="833.333" fill="#343434"/>
<path d="M412.612 670.727C411.562 671.593 411.183 671.377 410.95 671.432C409.669 671.178 408.696 668.571 417.948 653.137C427.148 637.789 436.649 619.89 473.949 552.386C511.248 484.882 539.191 460.875 548.949 451.386C558.707 441.897 498.644 543.148 480.636 577.385C461.861 613.079 433.252 651.043 428.473 656.608C423.695 662.174 413.924 669.645 412.612 670.727Z" fill="#CACACA"/>
<path d="M175.136 422.164C174.059 421.886 173.605 422.19 173.48 422.383C173.136 422.836 173.73 425.883 178.449 428.258C205.574 442.508 230.699 471.383 243.199 486.633C255.699 501.883 275.324 532.883 304.075 586.634C332.52 639.814 363.169 662.74 365.631 664.582L365.7 664.634C367.575 666.04 367.325 664.196 365.7 661.134C343.7 633.134 317.575 569.883 277.45 506.883C237.347 443.918 181.324 423.758 175.136 422.164Z" fill="#CACACA"/>
<path d="M328.948 187.886C275.697 262.636 252.781 375.553 249.447 424.137C314.648 465.937 359.698 553.387 374.698 591.887L395.448 607.637C400.698 596.387 422.448 551.887 447.448 512.637C467.448 481.237 506.782 447.053 523.948 433.887C509.948 258.886 441.448 173.885 416.323 149.511C392.607 126.502 374.198 127.385 328.948 187.886Z" fill="#A8A8A8"/>
<path d="M355.249 31.3405C326.183 33.8738 280.316 44.674 261.382 53.3407C259.116 54.274 256.716 55.2073 256.182 55.2073C253.516 55.2073 214.582 74.2741 204.982 80.4074C200.182 83.3408 194.582 86.8075 192.315 88.0075C187.249 90.8075 168.582 104.408 157.782 113.208C132.315 133.874 104.582 165.341 87.7815 192.408C71.7815 218.141 63.1147 236.808 53.1147 266.542C45.248 290.275 42.9813 299.742 37.5147 333.875C34.1813 354.542 34.1813 398.275 37.5147 421.875C41.1147 447.476 47.7814 479.342 50.1814 482.542C50.7147 483.209 52.0481 486.809 52.8481 490.542C53.7814 494.142 55.3814 498.942 56.3147 501.209C57.3814 503.342 59.7814 509.343 61.7814 514.543C67.2481 528.943 74.4482 542.809 87.7815 565.476C113.515 608.81 158.315 653.21 204.315 681.21C215.649 688.01 245.116 703.21 247.116 703.21C247.782 703.21 250.182 704.143 252.316 705.343C256.449 707.477 272.449 713.343 284.982 717.21C319.649 727.877 361.249 732.277 403.916 729.877C439.516 727.743 462.183 723.21 498.317 711.21C535.117 698.81 571.917 678.677 602.717 653.876L614.317 644.676L629.784 659.61L645.251 674.543L644.584 680.277C643.325 689.386 643.95 699.886 651.384 708.81C655.03 713.187 731.251 790.81 735.251 793.077C736.466 793.949 738.185 795.136 739.251 796.01C745.044 799.949 754.95 803.21 766.051 803.21C780.051 803.211 794.585 796.01 803.118 784.944C808.451 777.877 812.985 764.144 812.985 754.41C812.985 750.01 812.104 746.281 811.918 745.077C811.701 743.667 810.783 740.551 809.388 737.886C807.408 732.645 803.385 727.877 771.251 696.01C716.584 641.877 712.189 639.887 706.513 637.761C702.669 636.026 699.548 635.097 697.325 634.698C694.888 634.261 691.784 633.876 688.584 633.876C683.117 633.876 682.317 633.343 668.317 619.21C651.384 602.276 651.651 606.276 666.584 586.41C679.384 569.343 700.584 532.943 706.184 518.143C714.184 496.943 717.251 488.009 718.984 481.209C720.184 476.809 721.651 472.009 722.318 470.542C723.918 467.209 728.318 445.876 731.251 427.209C734.318 407.609 734.318 349.475 731.251 329.875C726.584 300.275 723.651 288.142 713.651 259.208C685.117 176.408 618.45 102.807 536.85 64.0074C499.383 46.274 459.25 35.2071 417.65 31.2071C402.183 29.7405 372.183 29.7405 355.249 31.3405ZM423.65 77.7408C426.983 78.4075 435.383 79.8741 442.316 81.0741C456.316 83.6074 461.25 85.0741 482.983 92.5408C499.917 98.4075 518.583 106.541 530.583 113.474C535.25 116.008 540.984 119.341 543.517 120.808C588.717 146.674 632.051 193.341 657.251 243.208C661.651 252.142 668.984 268.275 668.984 269.342C668.984 269.742 669.784 272.008 670.851 274.275C676.717 287.208 685.651 325.342 687.784 346.409C689.651 365.875 688.584 412.542 685.784 427.876C679.117 464.942 671.784 486.676 655.651 518.543C645.384 538.809 636.184 552.543 618.85 574.009C604.85 591.343 595.384 600.676 576.984 615.476C554.584 633.343 535.783 645.076 514.317 654.41C496.183 662.41 494.595 662.578 489.65 664.543C486.98 665.604 484.512 666.667 482.983 667.21C481.759 667.645 477.117 669.477 471.65 670.943C466.949 672.636 460.755 674.116 459.383 674.543C454.074 676.198 458.05 673.411 465.117 669.011C475.65 662.477 486.85 652.276 496.717 642.01C520.717 617.076 535.25 590.276 549.65 544.543C552.317 536.143 555.25 527.076 556.317 524.543C571.784 484.276 581.25 466.676 592.717 456.276C599.784 449.876 604.984 448.809 610.45 452.676C615.517 456.276 620.499 465.474 623.917 473.209C624.575 474.697 625.747 477.947 626.481 480.072C627.049 481.716 628.717 487.609 629.917 494.942C631.251 502.409 632.584 508.543 632.984 508.543C634.184 508.543 641.784 493.076 644.851 484.542C653.517 460.676 655.251 440.676 650.184 424.542C645.917 410.809 640.984 405.075 628.984 399.609C604.584 388.542 565.25 399.475 526.317 428.142C491.117 454.142 453.916 495.343 430.716 533.876C423.383 546.009 407.116 577.61 399.783 593.61C397.383 598.81 395.25 603.21 394.85 603.21C394.583 603.21 394.316 583.609 394.316 559.476L394.45 515.876L412.716 496.809L430.983 477.876H439.116C449.916 477.876 457.517 473.876 463.383 465.342C467.117 459.609 467.65 457.876 467.65 450.009C467.65 439.342 464.316 432.809 455.916 426.276C453.808 424.635 448.004 421.875 440.85 421.875C422.716 421.875 410.716 432.942 410.45 450.009C410.316 456.409 412.45 464.542 414.716 466.009C415.916 466.942 397.383 489.476 395.383 489.742C394.716 489.876 394.316 470.009 394.316 445.742V401.475L400.716 394.142C404.183 390.142 415.783 376.275 426.583 363.475L446.316 340.009L452.583 339.608C462.05 338.942 466.85 336.942 472.583 331.342C477.361 326.675 482.113 315.655 478.699 302.062C476.968 295.169 470.418 286.479 462.512 283.822C451.168 280.009 438.98 282.759 431.418 289.572C427.043 293.759 424.983 297.208 423.783 303.075C422.145 311.081 422.983 320.675 427.116 326.675C428.85 329.208 430.316 331.742 430.316 332.142C430.316 332.542 428.316 335.075 426.05 337.742C423.65 340.408 419.25 345.609 416.316 349.209C410.983 355.609 400.05 368.409 395.783 372.809C393.783 374.942 393.65 370.809 393.25 318.008L392.716 260.808L397.25 258.675C412.983 251.208 419.916 230.008 411.916 214.275C409.13 208.795 403.668 203.727 398.011 201.009C380.011 191.409 356.849 202.675 353.383 222.541C350.716 237.608 356.183 250.008 368.583 257.208L375.516 261.208L375.783 321.875C375.916 355.208 376.183 395.342 376.449 410.809C376.583 426.409 376.449 439.209 375.916 439.209C375.383 439.209 365.516 429.742 353.783 418.009L332.716 396.942L332.449 378.675L332.183 360.409L336.183 358.675C361.516 348.009 360.395 313.608 333.995 303.342C324.928 299.742 318.252 300.005 310.118 303.871C301.452 308.005 297.382 312.808 294.182 320.142C287.782 335.075 294.982 352.809 310.049 359.075L314.316 360.809V382.942V404.942L345.649 436.409L376.983 467.876V528.143C376.983 567.476 376.583 588.543 375.649 588.543C374.983 588.543 374.316 587.876 374.316 586.943C374.316 586.143 368.583 574.009 361.649 560.009C341.249 518.676 320.849 488.009 297.382 463.209C283.916 448.942 260.849 428.942 246.049 418.809C237.116 412.542 207.753 396.115 205.515 395.209C204.192 394.673 202.268 393.881 199.249 392.675C196.313 391.504 190.706 389.302 187.674 388.224C184.525 387.104 181.737 386.146 180.315 385.742C176.768 384.646 160.048 381.609 147.248 382.142C133.115 382.675 122.982 385.875 116.182 392.009C108.048 399.342 105.741 416.56 107.648 431.476C108.19 435.709 109.49 441.817 110.69 448.084C111.756 454.351 113.956 460.151 114.315 461.209C114.596 462.037 115.502 464.693 116.315 467.209C117.877 472.537 125.915 494.009 127.782 495.742C128.448 496.542 128.982 492.942 128.982 485.742C128.982 461.476 135.515 444.409 146.048 441.209C152.982 439.209 167.115 450.542 180.182 468.676C185.649 476.142 205.115 515.209 207.382 523.209C210.315 533.076 221.249 562.676 223.515 566.809C224.315 568.143 226.982 574.143 229.649 580.143C235.649 593.876 245.116 610.943 252.182 620.543C268.982 643.743 300.049 666.543 328.983 676.943C333.116 678.41 327.116 677.877 317.649 675.877C304.183 673.077 288.982 668.81 284.049 666.543C281.782 665.477 279.249 664.543 278.449 664.543C276.316 664.543 245.516 650.676 237.649 646.276C224.715 638.943 222.049 637.076 208.849 627.743C161.249 593.876 125.248 548.276 102.448 493.209C84.7149 450.276 76.8482 384.409 83.6482 336.008C91.2482 282.675 106.182 244.408 136.582 200.541C150.182 180.941 182.582 148.541 202.449 134.941C229.115 116.541 261.382 100.141 284.982 93.2075C286.849 92.6741 288.982 91.7408 289.649 91.2075C290.449 90.6741 295.516 89.2075 300.982 88.0075C306.449 86.6742 312.183 85.0741 313.649 84.5408C315.116 83.8741 320.183 82.6741 324.983 81.8741C329.783 81.0741 336.449 79.8741 339.916 79.0741C355.916 75.4741 406.85 74.6741 423.65 77.7408ZM393.886 220.759C396.33 223.32 398.309 233.243 393.511 238.134C387.631 244.128 377.346 243.577 372.316 236.408C366.574 225.634 375.855 216.259 382.699 216.259C388.074 216.259 390.834 217.56 393.886 220.759ZM458.574 301.04C460.449 302.54 462.043 305.165 462.043 310.04C461.637 314.384 459.189 316.463 457.262 317.859C455.188 319.361 448.302 320.062 445.099 316.858C441.177 312.937 441.469 306.014 444.572 302.062C447.386 298.478 453.73 297.165 458.574 301.04ZM331.783 323.075C336.449 327.742 336.849 333.342 332.983 338.275C326.983 345.875 315.516 345.075 311.383 336.808C305.249 324.408 321.916 313.208 331.783 323.075ZM180.315 425.475C186.182 427.475 210.849 440.676 219.915 446.676C233.915 455.876 255.116 477.476 269.649 497.209C270.849 498.676 272.982 501.609 274.716 503.876C276.316 506.009 279.249 510.276 281.116 513.209C282.982 516.143 286.049 520.943 287.916 523.876C295.249 535.343 309.249 561.343 334.583 611.21C345.916 633.61 355.116 648.676 363.249 658.81C365.783 662.01 367.116 664.543 366.316 664.543C363.916 664.543 337.916 637.743 332.049 629.21C317.249 607.743 311.649 599.21 308.049 592.543C305.783 588.543 300.316 578.543 295.782 570.276C291.382 562.143 287.649 555.076 287.649 554.809C287.649 552.943 270.982 525.209 260.182 509.209C246.049 488.009 229.649 467.876 216.182 455.209C204.449 444.276 188.292 432.041 179.382 427.342C176.885 425.947 174.315 424.676 174.315 424.142C174.315 423.609 175.362 423.674 176.167 423.916C177.363 424.276 178.849 424.942 180.315 425.475ZM446.183 442.676C452.761 448.561 449.516 459.476 438.85 459.476C427.783 459.476 425.116 446.142 434.983 440.809C438.41 439.365 442.973 439.803 446.183 442.676ZM548.05 454.809C547.65 456.142 546.184 458.409 544.984 459.876C538.85 467.209 517.25 504.676 500.983 536.543C496.317 545.743 489.517 558.543 486.05 565.209C482.45 571.743 478.45 579.61 476.85 582.543C472.45 591.076 461.25 608.676 446.716 629.876C439.783 639.876 422.05 660.143 414.716 666.41C410.983 669.61 411.074 668.073 414.386 663.636C416.092 661.351 418.089 658.482 419.074 657.229C422.761 652.542 426.011 647.323 429.136 641.636C431.176 637.923 435.29 630.809 436.511 628.26C437.733 625.711 439.437 622.317 440.449 620.135C442.701 615.279 446.338 608.768 449.949 601.885C454.216 593.752 457.783 585.876 458.316 585.21C458.983 584.41 461.917 579.076 465.117 573.209C476.983 550.543 480.317 544.676 487.383 533.209C489.65 529.476 492.583 524.809 493.783 522.676C496.583 517.609 518.317 487.476 526.183 477.876C531.25 471.476 547.784 452.942 548.584 452.676C548.717 452.542 548.584 453.609 548.05 454.809Z" fill="white"/>
</svg>
